<svg width="62" height="61" viewBox="0 0 62 61" fill="none" xmlns="http://www.w3.org/2000/svg">
<g clip-path="url(#clip0_0_474)">
<path d="M51.3809 0L10.6348 0C5.0418 0 0.507813 4.64281 0.507813 10.37L0.507813 50.5324C0.507813 56.2596 5.0418 60.9024 10.6348 60.9024H51.3809C56.9738 60.9024 61.5078 56.2596 61.5078 50.5324V10.37C61.5078 4.64281 56.9738 0 51.3809 0Z" fill="#001E36"/>
<path d="M14.2434 42.7086L14.2434 15.9325C14.2434 15.7373 14.3254 15.6392 14.4891 15.6392L14.7481 15.6385L15.1908 15.6336L15.8061 15.6212L17.8672 15.5765L20.0773 15.5345C20.8546 15.5209 21.6252 15.5135 22.3891 15.5135C24.4621 15.5135 26.208 15.779 27.627 16.3097C28.9069 16.7531 30.0743 17.4831 31.0439 18.4467C31.866 19.282 32.5012 20.2899 32.9059 21.401C33.2887 22.4822 33.4826 23.624 33.4789 24.7741C33.4789 27.0094 32.974 28.853 31.9647 30.3053C30.9774 31.7222 29.6004 32.8057 28.0092 33.4178L27.8726 33.469C26.2111 34.1037 24.3711 34.333 22.3531 34.3474L22.0395 34.3484L21.5742 34.346L21.3395 34.3425L21.0778 34.3362L20.9201 34.3299L20.8243 34.3247L20.5886 34.3159L20.3005 34.3098L19.8669 34.3067L19.7704 34.3064V42.6666C19.7775 42.7178 19.773 42.7701 19.757 42.8192C19.741 42.8683 19.7141 42.913 19.6783 42.9496C19.6426 42.9862 19.599 43.0138 19.551 43.0301C19.5031 43.0465 19.452 43.0512 19.402 43.0438H14.5301C14.3388 43.0438 14.2434 42.9326 14.2434 42.7086ZM19.7706 20.6676V29.4008C20.0972 29.4278 20.4247 29.4418 20.7523 29.4428H22.1029C23.0341 29.4396 23.9598 29.2976 24.851 29.0214L25.0288 28.9645C25.8395 28.7179 26.564 28.2379 27.1159 27.5815C27.6286 26.9623 27.8943 26.109 27.9127 25.0215L27.9139 24.8997C27.9353 24.0892 27.7294 23.2893 27.3203 22.5952C26.8903 21.9238 26.2688 21.4044 25.5404 21.1075C24.5891 20.7289 23.5731 20.5508 22.553 20.5839L22.034 20.5853L21.7066 20.5883L21.3943 20.5924L20.9534 20.6012L20.6318 20.6105L20.4647 20.6168L20.2415 20.6275L20.0513 20.6395L19.9429 20.6483L19.8492 20.6576L19.808 20.6624L19.7706 20.6676ZM49.3008 27.8129C48.587 27.4372 47.8298 27.1551 47.0471 26.973L46.866 26.933C46.005 26.7307 45.126 26.6192 44.2428 26.6004L44.0222 26.5977C43.5044 26.5834 42.9874 26.6469 42.4876 26.7863C42.1695 26.8588 41.8867 27.0443 41.6894 27.31C41.556 27.5225 41.4851 27.7698 41.4849 28.0225C41.4924 28.2675 41.5787 28.5031 41.7304 28.6927C41.9475 28.9528 42.2086 29.1708 42.5012 29.3361L42.5899 29.3842C43.1733 29.7059 43.7744 29.9927 44.3903 30.2431C45.7636 30.7139 47.0759 31.3541 48.2981 32.1497C49.1309 32.6879 49.82 33.4295 50.3035 34.3079C50.71 35.1395 50.9136 36.0596 50.8968 36.9895C50.9213 38.2175 50.5786 39.4238 49.9146 40.4467C49.2038 41.4849 48.2166 42.292 47.0705 42.772C45.8703 43.3122 44.3963 43.5911 42.6487 43.6094L42.4671 43.6104C41.3838 43.6216 40.3019 43.5245 39.237 43.3205L39.0092 43.2751C38.1126 43.1068 37.2398 42.8252 36.4107 42.437C36.3274 42.3929 36.257 42.327 36.2067 42.246C36.1564 42.165 36.128 42.0718 36.1243 41.9758V37.4086C36.1194 37.3643 36.1264 37.3194 36.1444 37.2788C36.1625 37.2382 36.1909 37.2034 36.2268 37.1781C36.2619 37.1577 36.3023 37.1488 36.3425 37.1526C36.3826 37.1563 36.4208 37.1726 36.4517 37.199C37.4307 37.7902 38.4938 38.2214 39.6025 38.4771C40.5799 38.728 41.5824 38.8616 42.5899 38.8753C43.5444 38.8753 44.2469 38.7494 44.6972 38.4981C44.9006 38.4028 45.0726 38.2491 45.1924 38.0558C45.3123 37.8624 45.3748 37.6376 45.3725 37.4086C45.3725 37.0461 45.1678 36.6967 44.7587 36.3612C44.5871 36.2206 44.341 36.0676 44.0207 35.9024L43.8675 35.8253L43.7041 35.7465L43.6183 35.7065L43.4386 35.625C43.4074 35.6111 43.3762 35.5972 43.345 35.5835L43.1496 35.4996L43.0478 35.4569L42.8367 35.3703L42.7271 35.3263L42.5 35.2368L42.2625 35.1458C40.9775 34.6878 39.7592 34.0535 38.6408 33.2602C37.841 32.6905 37.1824 31.9371 36.7176 31.0603C36.3152 30.2346 36.1118 29.3222 36.1243 28.3994C36.122 27.2907 36.4194 26.203 36.9836 25.2567C37.6269 24.2148 38.5505 23.3852 39.6435 22.8684C40.8437 22.2543 42.3439 21.9469 44.1446 21.9464C45.1993 21.9377 46.2529 22.0148 47.2957 22.1769C48.0507 22.275 48.7889 22.4795 49.4893 22.7845C49.602 22.8177 49.6928 22.9028 49.7347 23.0151C49.7626 23.1173 49.7762 23.223 49.7757 23.3294V27.5615C49.7817 27.6616 49.7347 27.7575 49.653 27.8129C49.5983 27.8407 49.538 27.8552 49.4769 27.8552C49.4158 27.8552 49.3555 27.8407 49.3008 27.8129Z" fill="#31A8FF"/>
</g>
<defs>
<clipPath id="clip0_0_474">
<rect width="61" height="61" fill="white" transform="translate(0.507812)"/>
</clipPath>
</defs>
</svg>
