<svg width="41" height="61" viewBox="0 0 41 61" fill="none" xmlns="http://www.w3.org/2000/svg">
<g clip-path="url(#clip0_0_457)">
<path d="M10.127 61.0001C15.717 61.0001 20.2539 56.4454 20.2539 50.8334V40.6667H10.127C4.53688 40.6667 0 45.2214 0 50.8334C0 56.4454 4.53688 61.0001 10.127 61.0001Z" fill="#0ACF83"/>
<path d="M0 30.4999C0 24.8879 4.53688 20.3333 10.127 20.3333H20.2539V40.6666H10.127C4.53688 40.6666 0 36.1119 0 30.4999Z" fill="#A259FF"/>
<path d="M0 10.1667C0 4.55467 4.53688 0 10.127 0H20.2539V20.3333H10.127C4.53688 20.3333 0 15.7787 0 10.1667Z" fill="#F24E1E"/>
<path d="M20.2539 0H30.3809C35.9709 0 40.5078 4.55467 40.5078 10.1667C40.5078 15.7787 35.9709 20.3333 30.3809 20.3333H20.2539V0Z" fill="#FF7262"/>
<path d="M40.5078 30.4999C40.5078 36.1119 35.9709 40.6666 30.3809 40.6666C24.7908 40.6666 20.2539 36.1119 20.2539 30.4999C20.2539 24.8879 24.7908 20.3333 30.3809 20.3333C35.9709 20.3333 40.5078 24.8879 40.5078 30.4999Z" fill="#1ABCFE"/>
</g>
<defs>
<clipPath id="clip0_0_457">
<rect width="40.5078" height="61" fill="white"/>
</clipPath>
</defs>
</svg>
