<svg width="62" height="61" viewBox="0 0 62 61" fill="none" xmlns="http://www.w3.org/2000/svg">
<g clip-path="url(#clip0_0_463)">
<path d="M51.3809 0H10.6348C5.0418 0 0.507812 4.64281 0.507812 10.37V50.5324C0.507812 56.2596 5.0418 60.9024 10.6348 60.9024H51.3809C56.9738 60.9024 61.5078 56.2596 61.5078 50.5324V10.37C61.5078 4.64281 56.9738 0 51.3809 0Z" fill="#470137"/>
<path d="M32.5751 16.0162L24.9637 28.8806L33.107 42.541C33.1594 42.6366 33.1739 42.7488 33.1479 42.8552C33.1353 42.9006 33.1082 42.9118 33.0665 42.9135L33.0202 42.9128L32.964 42.9113C32.9335 42.9113 32.8994 42.9128 32.8615 42.9192H26.9903L26.875 42.9172C26.5585 42.9087 26.3305 42.8623 26.1916 42.6246C25.6483 41.5409 25.1026 40.4584 24.5546 39.3773C24.0643 38.4129 23.5607 37.4558 23.0439 36.5061L22.8156 36.0879C22.1974 34.9629 21.5904 33.8315 20.9947 32.6938H20.9537C20.4035 33.8196 19.8373 34.937 19.2554 36.0459C18.6686 37.1634 18.0888 38.2741 17.5162 39.3773C16.9433 40.4813 16.3568 41.5778 15.7568 42.6666C15.6602 42.8887 15.4999 42.935 15.2766 42.9426L15.1837 42.944H9.57765L9.55334 42.9448L9.47328 42.9521C9.42872 42.9548 9.40203 42.945 9.39345 42.8762C9.37808 42.774 9.39996 42.6696 9.45493 42.5829L17.3525 29.2996L9.65938 15.9747C9.57765 15.8635 9.56406 15.7727 9.61839 15.7024C9.64859 15.6666 9.68651 15.6385 9.72914 15.6203C9.77178 15.6021 9.81797 15.5943 9.86406 15.5975H15.6338C15.7596 15.5904 15.8854 15.6119 16.0022 15.6605C16.0999 15.7173 16.184 15.7961 16.2476 15.891C16.7387 17.0086 17.2844 18.1261 17.8846 19.2431C18.4802 20.3531 19.0872 21.4566 19.7056 22.5535C20.3144 23.6333 20.881 24.7376 21.4038 25.8638H21.4448C21.9806 24.7379 22.533 23.6204 23.102 22.5117C23.6608 21.4223 24.2338 20.3255 24.8205 19.2221C25.3997 18.1329 25.9658 17.0365 26.5187 15.933C26.5502 15.8295 26.6064 15.7359 26.6824 15.6605C26.7835 15.6081 26.8971 15.5862 27.0098 15.5975H32.3704C32.4197 15.5849 32.4717 15.5891 32.5184 15.6093C32.5652 15.6296 32.6043 15.6648 32.6299 15.7098C32.6554 15.7548 32.666 15.807 32.66 15.8586C32.654 15.9103 32.6319 15.9586 32.5968 15.9962L32.5754 16.0167L32.5751 16.0162ZM44.6012 43.4596L44.319 43.4628C42.4355 43.4922 40.5693 43.0914 38.856 42.2896C37.2599 41.5332 35.9257 40.2985 35.0299 38.7487C34.1266 37.2125 33.6629 35.2981 33.6395 33.0062L33.6386 32.8195C33.6232 30.8963 34.1032 29.003 35.0301 27.3302C35.9578 25.6746 37.3102 24.3105 38.9408 23.3857L39.0812 23.3077C40.854 22.3019 42.9956 21.799 45.5057 21.799L45.6153 21.8002L45.7406 21.8044L45.8812 21.8107L46.0375 21.82L46.3001 21.839L46.5975 21.8634L46.815 21.8829V13.6279C46.815 13.4327 46.897 13.3346 47.0605 13.3346H52.2166C52.25 13.3297 52.284 13.3329 52.3159 13.3438C52.3479 13.3547 52.3769 13.373 52.4008 13.3974C52.4246 13.4218 52.4425 13.4516 52.4532 13.4843C52.4638 13.517 52.4669 13.5518 52.4621 13.586V38.3507C52.4621 38.7665 52.4778 39.2145 52.5092 39.6937L52.5855 40.7807L52.626 41.4095C52.631 41.4966 52.6103 41.5832 52.5665 41.658C52.5226 41.7328 52.4578 41.7923 52.3803 41.8287C51.0502 42.3967 49.6647 42.8181 48.2474 43.0856C47.0441 43.313 45.8246 43.4381 44.6012 43.4596ZM46.815 38.2668V26.8274C46.5939 26.766 46.3681 26.724 46.14 26.7017C45.8612 26.673 45.5812 26.659 45.301 26.6597C44.308 26.6497 43.3267 26.8794 42.4366 27.3302C41.5697 27.7715 40.8294 28.4357 40.2883 29.2578C39.7481 30.0669 39.4686 31.1235 39.4502 32.4274L39.4493 32.5682C39.4294 33.4816 39.5751 34.3908 39.8789 35.2497C40.1263 35.942 40.5173 36.5711 41.025 37.0937C41.5109 37.5744 42.0992 37.9329 42.7435 38.1411C43.4241 38.3668 44.1355 38.4801 44.8509 38.4766C45.2326 38.4766 45.5872 38.4625 45.9148 38.4344C46.1761 38.4143 46.4351 38.3702 46.6888 38.3027L46.815 38.2668Z" fill="#FF61F6"/>
</g>
<defs>
<clipPath id="clip0_0_463">
<rect width="61" height="61" fill="white" transform="translate(0.507812)"/>
</clipPath>
</defs>
</svg>
